# xmcd
#
# Track frame offsets: 
#        150
#        15595
#        28628
#        44042
#        58811
#        78874
#        100914
#        116557
#        143217
#        158372
#        175250
#        193788
#        216921
#        233583
#        250234
#        264726
#        281644
#        300253
#        312542
#        325034
#
# Disc length: 4566 seconds
#
# Revision: 0
# Processed by: cddbd v1.5.2PL0 Copyright (c) Steve Scherf et al.
# Submitted via: ExactAudioCopyFreeDBPlugin 1.0
#
DISCID=1411d414
DTITLE=Jake Shimabukuro - The 10th Anniversary Collection UKULELE X  D
DTITLE=isc 1
DYEAR=2011
DGENRE=Easy Listening
TTITLE0=Sunday Morning
TTITLE1=Toastmaker's Revenge
TTITLE2=Crazy G
TTITLE3=Crosscurrent
TTITLE4=Wish On My Star
TTITLE5=Spain
TTITLE6=Orange World
TTITLE7=Heartbeat
TTITLE8=Rainbow
TTITLE9=Wish U Always
TTITLE10=Dragon
TTITLE11=3rd Stream
TTITLE12=Me and Shirley T.
TTITLE13=Blue Roses Falling -solo-
TTITLE14=Ave Maria
TTITLE15=Hula Girl
TTITLE16=White My Guitar Gently Weeps -solo-
TTITLE17=Coffee Talk
TTITLE18=Let's Dance -solo-
TTITLE19=On The Road
EXTD=
EXTT0=
EXTT1=
EXTT2=
EXTT3=
EXTT4=
EXTT5=
EXTT6=
EXTT7=
EXTT8=
EXTT9=
EXTT10=
EXTT11=
EXTT12=
EXTT13=
EXTT14=
EXTT15=
EXTT16=
EXTT17=
EXTT18=
EXTT19=
PLAYORDER=
